<?xml version="1.0" standalone="no"?>
<!DOCTYPE svg PUBLIC "-//W3C//DTD SVG 20010904//EN" "http://www.w3.org/TR/2001/REC-SVG-20010904/DTD/svg10.dtd">
<!-- Created using Krita: https://krita.org -->
<svg xmlns="http://www.w3.org/2000/svg" 
    xmlns:xlink="http://www.w3.org/1999/xlink"
    xmlns:krita="http://krita.org/namespaces/svg/krita"
    xmlns:sodipodi="http://sodipodi.sourceforge.net/DTD/sodipodi-0.dtd"
    width="737.28pt"
    height="737.28pt"
    viewBox="0 0 737.28 737.28">
<defs/>
<path id="shape0" fill="#000000" fill-rule="evenodd" stroke="none" stroke-width="28.8" stroke-linecap="square" stroke-linejoin="bevel" d="M37.0383 10.5642L21.3829 27.7469L2.54558 12.3461L0.855 102.465L20.3647 123.255L6.14294 129.375L10.1823 216.502L0 271.868L58.32 318.96L0 358.29L9 542.16L29.88 566.28L0 688.708L22.6557 709.454L56.2574 678.398L49.6389 726.892L96.2231 737.28L300.124 729.31L310.307 681.708L351.8 714.546L398.893 689.853L417.985 733.892L494.28 737.28L507.24 704.52L628.56 716.4L638.28 731.16L684.18 737.28L724.77 737.28L734.94 708.57L719.891 652.688L721.419 545.773L737.28 495.116L682.726 468.388L737.28 443.186L737.28 279.505L705.24 245.52L716.327 129.316L732.11 61.8577L731.03 29.4506L717.98 13.7006L677.635 0L627.21 0L592.92 29.88L573.12 11.61L444.714 14.5098L409.33 63.1305L376.237 24.4376L234.9 27.36L208.738 9.92778L182.773 70.0036L157.317 7.89131Z" sodipodi:nodetypes="cccccccccccccccccccccccccccccccccccccccccccccccccccc"/>
</svg>
