<svg xmlns="http://www.w3.org/2000/svg"><path d="M0,0v40h137.7V0H0z M134.62,36.9H3.08V3.1h131.54V36.9z M19.33,26.97c3.27,0,5.17-1.97,5.17-4.49c0-2.81-2.38-4.05-5.14-4.17c0,0-1.9,0-1.9-1.3c0-0.46,0.46-1.27,1.87-1.27c0.57,0,1.29,0.26,1.92,0.87c0.26,0.23,0.6,0.29,0.89,0.09l1.23-0.9c0.32-0.23,0.32-0.61,0.09-0.87c-0.98-1.22-2.56-1.91-4.14-1.91c-3.27,0-4.85,2.08-4.85,3.99c0,2.29,1.72,3.85,4.83,4.02c0,0,2.13-0.06,2.13,1.45c0,0.84-0.6,1.74-2.1,1.74c-1.23,0-2.38-0.93-2.96-1.71c-0.2-0.29-0.52-0.38-0.83-0.17l-1.15,0.78c-0.32,0.23-0.37,0.58-0.17,0.9C15.08,25.41,16.8,26.97,19.33,26.97z M32.72,26.68h7.01c0.4,0,0.63-0.23,0.63-0.64v-1.33c0-0.41-0.23-0.64-0.63-0.64h-4.89c-0.2,0-0.32-0.12-0.32-0.32v-9.81c0-0.41-0.23-0.64-0.63-0.64h-1.81c-0.4,0-0.63,0.23-0.63,0.64v11.46C31.45,26.22,31.91,26.68,32.72,26.68z M51.79,26.97c3.1,0,5.17-2.26,5.17-4.83v-4.28c0-2.58-2.07-4.83-5.17-4.83c-3.1,0-5.17,2.26-5.17,4.83v4.28C46.62,24.72,48.69,26.97,51.79,26.97z M49.69,17.86c0-1.01,0.75-2.08,2.1-2.08c1.35,0,2.1,1.07,2.1,2.08v4.28c0,1.01-0.75,2.08-2.1,2.08c-1.35,0-2.1-1.07-2.1-2.08V17.86zM69.05,26.97c2.56,0,4.17-1.48,4.71-2.89c0.09-0.2,0.17-0.64-0.17-0.87l-1.35-0.9c-0.32-0.2-0.66-0.17-0.86,0.14c-0.55,0.93-1.06,1.77-2.33,1.77c-1.35,0-2.1-1.07-2.1-2.08v-4.28c0-1.01,0.75-2.08,2.1-2.08c1.26,0,1.78,0.84,2.33,1.77c0.2,0.32,0.55,0.35,0.86,0.14l1.35-0.9c0.35-0.23,0.26-0.67,0.17-0.87c-0.55-1.42-2.15-2.89-4.71-2.89c-3.1,0-5.17,2.26-5.17,4.83v4.28C63.88,24.72,65.95,26.97,69.05,26.97z M81.7,26.68h7.01c0.4,0,0.63-0.23,0.63-0.64v-1.33c0-0.41-0.23-0.64-0.63-0.64h-4.89c-0.2,0-0.32-0.12-0.32-0.32v-9.81c0-0.41-0.23-0.64-0.63-0.64h-1.81c-0.4,0-0.63,0.23-0.63,0.64v11.46C80.43,26.22,80.89,26.68,81.7,26.68z M96.6,26.68h1.81c0.4,0,0.63-0.23,0.63-0.64v-3.86c0-0.2,0.11-0.32,0.32-0.32h3.56c0.2,0,0.32,0.12,0.32,0.32v3.86c0,0.41,0.23,0.64,0.63,0.64h1.81c0.4,0,0.63-0.23,0.63-0.64v-8.22c0-2.55-2.07-4.8-5.17-4.8c-3.1,0-5.17,2.26-5.17,4.8v8.22C95.97,26.45,96.2,26.68,96.6,26.68z M99.05,17.86c0-1.01,0.75-2.08,2.1-2.08c1.35,0,2.1,1.07,2.1,2.08v1.08c0,0.2-0.11,0.32-0.32,0.32h-3.56c-0.2,0-0.32-0.12-0.32-0.32L99.05,17.86L99.05,17.86z M113.8,26.68h1.91c0.33,0,0.59-0.27,0.59-0.6v-3.82c0-0.22,0.18-0.4,0.39-0.4h2.84c2.17,0,4.07-1.77,4.07-4.42s-1.9-4.42-4.07-4.42h-5.72c-0.33,0-0.59,0.27-0.59,0.6v12.47C113.21,26.42,113.48,26.68,113.8,26.68z M116.3,16.05c0-0.22,0.18-0.4,0.39-0.4h2.42c0.85,0,1.76,0.64,1.76,1.79s-0.9,1.79-1.76,1.79h-2.42c-0.22,0-0.39-0.18-0.39-0.4V16.05z" fill="#fff"></path></svg>
