<?xml version="1.0" encoding="utf-8"?><svg xmlns="http://www.w3.org/2000/svg" xmlns:xlink="http://www.w3.org/1999/xlink"><symbol viewBox="0 0 5 9" id="icon_arrow"><defs><style>.acls-1{fill-rule:evenodd}</style></defs><path id="a_" data-name=">" class="acls-1" d="M5 4.5L0 9V0z"/></symbol><symbol viewBox="0 0 17 18" id="icon_arrow_double"><defs><style>.bcls-1{fill:#231e1f;fill-rule:evenodd}</style></defs><path id="b_" data-name=">>" class="bcls-1" d="M.3.29a.97.97 0 0 0-.01 1.38l7.35 7.34-7.36 7.33a.978.978 0 0 0 0 1.38.99.99 0 0 0 1.39 0L9.71 9.7a.938.938 0 0 0 .29-.69.968.968 0 0 0-.28-.69L1.68.29A.978.978 0 0 0 .3.29zm7 0a.97.97 0 0 0-.01 1.38l7.35 7.34-7.36 7.33a.978.978 0 0 0 0 1.38.99.99 0 0 0 1.39 0l8.04-8.02a.978.978 0 0 0 .29-.69.968.968 0 0 0-.28-.69L8.68.29a.978.978 0 0 0-1.38 0z"/></symbol><symbol viewBox="0 0 35 35" id="icon_play"><defs><style>.ccls-1{fill:#fff;fill-rule:evenodd}</style></defs><path class="ccls-1" d="M17.5 0A17.52 17.52 0 0 0 0 17.5 17.52 17.52 0 0 0 17.5 35 17.52 17.52 0 0 0 35 17.5 17.52 17.52 0 0 0 17.5 0zm7.63 18.72l-10.61 6.63a1.445 1.445 0 0 1-2.21-1.22V10.87a1.435 1.435 0 0 1 2.21-1.22l10.61 6.63a1.458 1.458 0 0 1 0 2.44z"/></symbol><symbol viewBox="0 0 634 218" id="logo_absolver"><path fill-rule="evenodd" d="M45.05 187L43 179.997l64.655-2.995 88.25 1.994v7.002l-102.623-2.995L45.05 187zm388.936-2.004l1.03-5 86.202-2.994L588.94 176l2.06 8.004-93.39-1-63.624 1.992zm-215.102 6.768H217v-17.528h1.884l4.97 10.38 4.96-10.38h1.893v17.528h-1.893V177.87l-4.1 8.678h-1.722l-4.108-8.677v13.894zm15.48 0l5.792-17.528h1.814l5.802 17.528h-1.974l-1.333-4.23h-6.794l-1.34 4.23h-1.965zm18.95-17.528v10.083l7.223-10.084h2.144l-6.1 8.43 6.312 9.098h-2.235l-5.28-7.722-2.064 2.773v4.95h-1.884v-17.53h1.883zm13.365 17.528v-17.528h9.418v1.735h-7.535v5.988h6.443v1.735h-6.443v6.335h7.535v1.736h-9.42zm25.83-6.264l-5.11-11.264h2.045l4.008 9.21 4.008-9.21h2.045l-5.11 11.264v6.264h-1.884V185.5zm10.362-8.337a5.318 5.318 0 0 1 1.994-2.31 6.533 6.533 0 0 1 6.453 0 5.254 5.254 0 0 1 1.993 2.31 7.44 7.44 0 0 1 .56 1.95c.116.62.186 1.25.21 1.88.02.492.03 1.16.03 2.002 0 .842-.01 1.51-.03 2.012-.024.63-.094 1.26-.21 1.88a7.44 7.44 0 0 1-.56 1.95 5.173 5.173 0 0 1-1.994 2.3 6.466 6.466 0 0 1-6.454 0 5.235 5.235 0 0 1-1.994-2.3 7.845 7.845 0 0 1-.56-1.95 16.865 16.865 0 0 1-.212-1.88 99.21 99.21 0 0 1 0-4.014c.035-.63.105-1.258.21-1.88.103-.672.29-1.328.562-1.95zm15.74 8.224v-11.15h1.885v11.15a9.154 9.154 0 0 0 .24 2.536c.226.75.715 1.387 1.373 1.787a4.02 4.02 0 0 0 2.034.555 3.967 3.967 0 0 0 2.034-.555 3.107 3.107 0 0 0 1.373-1.787c.2-.83.28-1.683.242-2.536v-11.15h1.893v11.15c0 .483-.01.842-.02 1.1-.007.308-.033.617-.08.923a5.5 5.5 0 0 1-.22 1.006 4.907 4.907 0 0 1-1.223 2.064c-.517.522-1.14.92-1.823 1.17a6.76 6.76 0 0 1-2.176.35 6.655 6.655 0 0 1-2.164-.35 4.967 4.967 0 0 1-1.824-1.17 4.907 4.907 0 0 1-1.222-2.064 5.5 5.5 0 0 1-.22-1.006c-.05-.37-.09-.667-.09-.924s-.01-.616-.01-1.1zm16.174-11.15h3.957c.552 0 .962.01 1.233.02.32.017.637.055.952.113.368.067.728.177 1.072.328a4.646 4.646 0 0 1 2.184 1.87 5.85 5.85 0 0 1-.01 5.996 4.627 4.627 0 0 1-2.204 1.868l3.337 7.332h-2.034l-3.077-6.88h-3.527v6.88h-1.884v-17.528zm24.8 17.527H357.7v-17.528h1.885l4.97 10.38 4.96-10.38h1.884v17.528h-1.885V177.87l-4.108 8.678h-1.714l-4.108-8.677v13.894zm17.364-14.6a5.192 5.192 0 0 1 1.994-2.312 6.515 6.515 0 0 1 6.443 0 5.192 5.192 0 0 1 1.994 2.31 7.44 7.44 0 0 1 .562 1.95c.115.622.185 1.25.21 1.88.02.493.03 1.16.03 2.003 0 .842-.01 1.51-.03 2.012-.025.63-.095 1.26-.21 1.88a7.44 7.44 0 0 1-.56 1.95 5.112 5.112 0 0 1-1.995 2.3 6.448 6.448 0 0 1-6.443 0 5.112 5.112 0 0 1-1.994-2.3 7.44 7.44 0 0 1-.56-1.95c-.114-.62-.188-1.25-.222-1.88a99.21 99.21 0 0 1 0-4.014c.034-.63.108-1.26.22-1.88a7.44 7.44 0 0 1 .562-1.95zm19.36 14.6l-5.803-17.528h1.974l4.74 14.91 4.73-14.91h1.974l-5.802 17.528h-1.813zm11.27 0v-17.528H417v1.735h-7.535v5.988h6.453v1.735h-6.453v6.335H417v1.736h-9.42zM503.32 29.41h37.97c0 2.26-.03 4.62 0 6.97.15 9.49.27 18.992.51 28.483a4.31 4.31 0 0 1-1.69 3.76c-2.29 1.96-4.38 4.14-6.67 6.1a2.56 2.56 0 0 0-.91 3.12 27755.51 27755.51 0 0 1 21.68 75.057c.21.73.43 1.46.7 2.4-2.85 1.14-5.67 2.27-8.81 3.52-7.45-25.032-14.86-49.924-22.35-75.066-3.2 2.91-6.2 5.59-9.12 8.35a2.506 2.506 0 0 0-.48 1.72c.48 18.402.99 36.804 1.53 55.205.09 3.07.39 6.13.61 9.39-2.99.19-5.9.37-9.33.58-1.21-43.213-2.42-86.196-3.64-129.59zM154.8 30.45c12.06-.45 23.75-.89 35.63-1.34.07.8.17 1.47.18 2.15.16 11.54.33 23.082.42 34.633a4.247 4.247 0 0 1-.99 2.52c-1.82 2.15-3.77 4.2-5.73 6.22a2.246 2.246 0 0 0-.59 2.54c3.84 13.512 7.627 27.033 11.36 40.564.247.858.372 1.747.37 2.64-.13 9.36-.31 18.722-.41 28.092a7.465 7.465 0 0 1-1.25 3.67c-2.43 4.44-5.88 5.74-10.95 5.42-8.42-.54-16.9-.19-25.36-.21h-2.68V30.45zm-55.36 71.636c-3.82 18.2-7.54 35.872-11.27 53.654h-9.16C88.12 112.477 97.2 69.343 106.33 26c2.58.28 5.11.55 7.79.84 7.34 43.333 14.67 86.607 22.04 130.14-2.56.13-5.04.35-7.51.33a2.63 2.63 0 0 1-1.45-1.44c-8.31-16.08-16.603-32.173-24.88-48.274-.87-1.68-1.75-3.36-2.88-5.51zm306.05 19.83c4.68-30.4 9.37-60.803 14.09-91.416 2.68.23 5.45.47 8.55.74-.36 2.66-.67 5.22-1.05 7.78-1.5 10.052-3.007 20.1-4.52 30.143-1.61 10.68-3.26 21.362-4.87 32.043-1.61 10.68-3.15 21.37-4.74 32.052-1.14 7.72-2.29 15.43-3.5 23.132-.146.494-.535.878-1.03 1.02-2.22.1-4.44.05-7.13.05-7.04-41.573-14.09-83.256-21.25-125.57 3.02 0 5.61-.03 8.2.05.432.183.748.563.85 1.02 1.71 9.23 3.39 18.47 5.04 27.713 2.267 12.63 4.52 25.268 6.76 37.912 1.39 7.79 2.773 15.582 4.15 23.372.15-.01.3-.03.45-.04zM216.17 30.3c11.89-.52 23.31-1.01 35-1.52.24 8.44.47 16.74.71 25.222h-8.93v-16.35c-6.03.27-12.05.54-18.2.82 0 5.68-.02 11.25.04 16.81.113.63.366 1.223.74 1.74 10.22 19.412 20.44 38.82 30.66 58.225a5 5 0 0 1 .67 2.14c-.08 8.33-.04 16.68-.4 25.002-.34 7.79-6.28 13.47-14.04 14.23-6.29.61-12.18-.21-17.13-4.41a20.982 20.982 0 0 1-7.57-15.992c-.26-9.81-.27-19.62-.38-29.442-.01-.7 0-1.4 0-2.38 2.52 0 4.94-.07 7.35.08.55.375.9.984.94 1.65.23 5.19.33 10.39.5 15.58.17 5.192.36 10.382.63 15.562.4 8.01 6.47 11.12 13.22 10.37 5.75-.65 8.36-3.82 8.42-9.7.06-5.78.12-11.55.08-17.32a6.4 6.4 0 0 0-.77-2.89c-10.17-18.936-20.35-37.86-30.54-56.775a8.618 8.618 0 0 1-.96-3.79c-.08-8.85-.04-17.702-.04-26.863zm231.35 1.46c13.74-.83 27.2-1.64 40.92-2.47v7.86c-10.39.75-20.9 1.52-31.65 2.31.39 16.682.78 33.254 1.18 50.215 4.13-3.17 8-6.14 12.06-9.25 1.13 2.73 2.23 5.22 3.14 7.78a2.3 2.3 0 0 1-.86 1.79c-4.38 3.55-8.84 7-13.22 10.55a2.972 2.972 0 0 0-1.08 1.98c.17 14.502.387 28.996.65 43.484.025.305.07.61.13.91 4.48.14 8.94.34 13.4.41 5.06.08 10.12.08 15.18.03 1.34-.01 1.8.45 1.75 1.78-.09 2.16-.02 4.32-.02 6.8h-38.53c-1.01-41.183-2.027-82.576-3.05-124.18zm-108.36.32h8.52c.99 36.473 1.98 73.156 2.98 109.83.14.07.28.15.43.22 6.68-7.102 13.37-14.192 20.17-21.413 1.75 2.22 3.51 4.46 5.34 6.78-3.39 3.84-6.69 7.58-10 11.32-5.14 5.812-10.3 11.592-15.4 17.443a3.645 3.645 0 0 1-3.27 1.49c-1.85-.12-3.71-.03-5.88-.03-.96-41.863-1.93-83.636-2.89-125.64zM42 157c2.99-2.99 5.89-5.9 8.86-8.88 2.19 2.98 4.49 6.12 7.12 9.7-5.63-.29-10.84-.56-15.98-.82zm534.14-.21c3-2.67 6-5.34 9.07-8.08 2.02 2.59 4.38 5.65 6.79 8.75h-15.56c-.1-.22-.2-.45-.3-.67zm-62.79-77.276c.24.04.49.09.73.13 5.9-5.5 11.81-10.97 17.66-16.52a3.43 3.43 0 0 0 .7-2.22c.05-6.732.03-13.462.03-20.193v-1.93c-6.1-.31-11.91-.61-17.72-.88-1.25-.06-2.16.12-2.11 1.87.31 9.422.51 18.832.69 28.253.08 3.83.02 7.66.02 11.49zm-337.38 4.72c-4.06 4.51-7.95 8.76-11.72 13.11a5.073 5.073 0 0 0-1.13 3.032c-.07 15.72-.05 31.442-.05 47.153v2.13c6.78-.38 13.3-.77 19.81-1.11 2.66-.14 3.56-1.07 3.67-3.71.18-4.87.48-9.732.64-14.602.1-2.88.67-5.94-.08-8.61-3.47-12.412-7.32-24.723-11.14-37.394zm-12.62-.66l.57.15c5.79-6.51 11.6-13 17.36-19.55.542-.61.863-1.386.91-2.2-.1-7.372-.29-14.742-.47-22.123-.03-.49-.097-.978-.2-1.46h-18.17v45.184zm-53.69-29.162a4.84 4.84 0 0 0-.41.78c-2.19 10.55-4.39 21.112-6.5 31.683a4.39 4.39 0 0 0 .52 2.7 5686.205 5686.205 0 0 0 17.6 33.392c.24.44.56.84.84 1.25.15-.05.29-.1.44-.15l-12.49-69.655zM311.57 177.81a3.313 3.313 0 0 0-1.313-1.52 4.5 4.5 0 0 0-4.33 0 3.372 3.372 0 0 0-1.312 1.52 6.284 6.284 0 0 0-.45 1.642c-.09.558-.15 1.12-.18 1.684a84.195 84.195 0 0 0 0 3.728c.03.564.09 1.126.18 1.684a6.09 6.09 0 0 0 .45 1.632 3.4 3.4 0 0 0 1.313 1.53 4.5 4.5 0 0 0 4.33 0 3.34 3.34 0 0 0 1.31-1.53c.235-.517.39-1.067.462-1.632.087-.558.144-1.12.17-1.684.02-.473.03-1.1.03-1.87s-.01-1.396-.03-1.858a15.77 15.77 0 0 0-.17-1.684 5.9 5.9 0 0 0-.46-1.643zm28.155-1.828c-.21-.01-.54-.01-.982-.01h-2.074v7.177h2.073c.44 0 .772 0 .982-.01.21-.012.46-.043.732-.084.257-.04.51-.11.75-.205.35-.146.667-.363.933-.636a3.08 3.08 0 0 0 .6-.872c.127-.295.224-.6.292-.914a4.303 4.303 0 0 0 0-1.746 4.97 4.97 0 0 0-.29-.903 2.987 2.987 0 0 0-1.534-1.51 3.1 3.1 0 0 0-.75-.206 5.28 5.28 0 0 0-.733-.082zm45.922 1.827a3.334 3.334 0 0 0-1.322-1.52 4.482 4.482 0 0 0-4.32 0 3.334 3.334 0 0 0-1.322 1.52 6.284 6.284 0 0 0-.45 1.642c-.092.557-.15 1.12-.17 1.684a44.98 44.98 0 0 0-.03 1.86c0 .78.01 1.395.03 1.868.02.564.078 1.127.17 1.684a6.09 6.09 0 0 0 .45 1.632c.277.638.74 1.172 1.323 1.53 1.35.74 2.97.74 4.32 0a3.363 3.363 0 0 0 1.32-1.53 6.09 6.09 0 0 0 .452-1.632c.092-.557.15-1.12.17-1.684.02-.473.03-1.1.03-1.87s-.01-1.396-.03-1.858a13.527 13.527 0 0 0-.17-1.684 6.284 6.284 0 0 0-.45-1.643zm-147.415 7.988h5.672l-2.836-8.954-2.836 8.954zM276.46 28.32c3.97.35 7.72.66 11.46 1 6.43.58 12.86 1.167 19.29 1.76 1.53.14 3.06.32 4.59.38 1.32.06 1.1 1.03 1.12 1.8.18 5.32.32 10.64.47 15.962.45 15.77.98 31.542 1.33 47.303.3 13.4.59 26.812.49 40.203a35.788 35.788 0 0 1-2.32 11.37c-2.23 6.292-6.78 10.222-13.66 10.672-6.71.43-12.31-1.85-16.21-7.58a25.964 25.964 0 0 1-4.53-13.682c-.55-14.74-.95-29.485-1.2-44.233-.37-20.842-.56-41.683-.83-62.525-.01-.7 0-1.4 0-2.43zm8.17 9.33c0 1.95-.04 3.74 0 5.52.49 21.673.94 43.345 1.5 65.016.25 9.49.633 18.975 1.15 28.452.182 3.55 1.5 6.948 3.76 9.69 4.1 5.03 10.72 4.41 13.38-1.5a22.024 22.024 0 0 0 2.02-9.04c-.38-31.482-.98-62.974-1.52-94.457-.01-.56-.1-1.13-.16-1.87-6.7-.61-13.31-1.2-20.13-1.81z"/></symbol><symbol viewBox="0 0 634 218" id="logo_absolver_shadow"><defs><filter id="ea" width="106.5%" height="121.7%" x="-3.3%" y="-10.8%" filterUnits="objectBoundingBox"><feGaussianBlur in="SourceGraphic" stdDeviation="6"/></filter></defs><g fill="none" fill-rule="evenodd"><path fill="#000" d="M45.05 187L43 179.997l64.655-2.995 88.25 1.994v7.002l-102.623-2.995L45.05 187zm388.936-2.004l1.03-5 86.202-2.994L588.94 176l2.06 8.004-93.39-1-63.624 1.992zm-215.102 6.768H217v-17.528h1.884l4.97 10.38 4.96-10.38h1.893v17.528h-1.893V177.87l-4.1 8.678h-1.722l-4.108-8.677v13.894zm15.48 0l5.792-17.528h1.814l5.802 17.528h-1.974l-1.333-4.23h-6.794l-1.34 4.23h-1.965zm18.95-17.528v10.083l7.223-10.084h2.144l-6.1 8.43 6.312 9.098h-2.235l-5.28-7.722-2.064 2.773v4.95h-1.884v-17.53h1.883zm13.365 17.528v-17.528h9.418v1.735h-7.535v5.988h6.443v1.735h-6.443v6.335h7.535v1.736h-9.42zm25.83-6.264l-5.11-11.264h2.045l4.008 9.21 4.008-9.21h2.045l-5.11 11.264v6.264h-1.884V185.5zm10.362-8.337a5.318 5.318 0 0 1 1.994-2.31 6.533 6.533 0 0 1 6.453 0 5.254 5.254 0 0 1 1.993 2.31 7.44 7.44 0 0 1 .56 1.95c.116.62.186 1.25.21 1.88.02.492.03 1.16.03 2.002 0 .842-.01 1.51-.03 2.012-.024.63-.094 1.26-.21 1.88a7.44 7.44 0 0 1-.56 1.95 5.173 5.173 0 0 1-1.994 2.3 6.466 6.466 0 0 1-6.454 0 5.235 5.235 0 0 1-1.994-2.3 7.845 7.845 0 0 1-.56-1.95 16.865 16.865 0 0 1-.212-1.88 99.21 99.21 0 0 1 0-4.014c.035-.63.105-1.258.21-1.88.103-.672.29-1.328.562-1.95zm15.74 8.224v-11.15h1.885v11.15a9.154 9.154 0 0 0 .24 2.536c.226.75.715 1.387 1.373 1.787a4.02 4.02 0 0 0 2.034.555 3.967 3.967 0 0 0 2.034-.555 3.107 3.107 0 0 0 1.373-1.787c.2-.83.28-1.683.242-2.536v-11.15h1.893v11.15c0 .483-.01.842-.02 1.1-.007.308-.033.617-.08.923a5.5 5.5 0 0 1-.22 1.006 4.907 4.907 0 0 1-1.223 2.064c-.517.522-1.14.92-1.823 1.17a6.76 6.76 0 0 1-2.176.35 6.655 6.655 0 0 1-2.164-.35 4.967 4.967 0 0 1-1.824-1.17 4.907 4.907 0 0 1-1.222-2.064 5.5 5.5 0 0 1-.22-1.006c-.05-.37-.09-.667-.09-.924s-.01-.616-.01-1.1zm16.174-11.15h3.957c.552 0 .962.01 1.233.02.32.017.637.055.952.113.368.067.728.177 1.072.328a4.646 4.646 0 0 1 2.184 1.87 5.85 5.85 0 0 1-.01 5.996 4.627 4.627 0 0 1-2.204 1.868l3.337 7.332h-2.034l-3.077-6.88h-3.527v6.88h-1.884v-17.528zm24.8 17.527H357.7v-17.528h1.885l4.97 10.38 4.96-10.38h1.884v17.528h-1.885V177.87l-4.108 8.678h-1.714l-4.108-8.677v13.894zm17.364-14.6a5.192 5.192 0 0 1 1.994-2.312 6.515 6.515 0 0 1 6.443 0 5.192 5.192 0 0 1 1.994 2.31 7.44 7.44 0 0 1 .562 1.95c.115.622.185 1.25.21 1.88.02.493.03 1.16.03 2.003 0 .842-.01 1.51-.03 2.012-.025.63-.095 1.26-.21 1.88a7.44 7.44 0 0 1-.56 1.95 5.112 5.112 0 0 1-1.995 2.3 6.448 6.448 0 0 1-6.443 0 5.112 5.112 0 0 1-1.994-2.3 7.44 7.44 0 0 1-.56-1.95c-.114-.62-.188-1.25-.222-1.88a99.21 99.21 0 0 1 0-4.014c.034-.63.108-1.26.22-1.88a7.44 7.44 0 0 1 .562-1.95zm19.36 14.6l-5.803-17.528h1.974l4.74 14.91 4.73-14.91h1.974l-5.802 17.528h-1.813zm11.27 0v-17.528H417v1.735h-7.535v5.988h6.453v1.735h-6.453v6.335H417v1.736h-9.42zM503.32 29.41h37.97c0 2.26-.03 4.62 0 6.97.15 9.49.27 18.992.51 28.483a4.31 4.31 0 0 1-1.69 3.76c-2.29 1.96-4.38 4.14-6.67 6.1a2.56 2.56 0 0 0-.91 3.12 27755.51 27755.51 0 0 1 21.68 75.057c.21.73.43 1.46.7 2.4-2.85 1.14-5.67 2.27-8.81 3.52-7.45-25.032-14.86-49.924-22.35-75.066-3.2 2.91-6.2 5.59-9.12 8.35a2.506 2.506 0 0 0-.48 1.72c.48 18.402.99 36.804 1.53 55.205.09 3.07.39 6.13.61 9.39-2.99.19-5.9.37-9.33.58-1.21-43.213-2.42-86.196-3.64-129.59zM154.8 30.45c12.06-.45 23.75-.89 35.63-1.34.07.8.17 1.47.18 2.15.16 11.54.33 23.082.42 34.633a4.247 4.247 0 0 1-.99 2.52c-1.82 2.15-3.77 4.2-5.73 6.22a2.246 2.246 0 0 0-.59 2.54c3.84 13.512 7.627 27.033 11.36 40.564.247.858.372 1.747.37 2.64-.13 9.36-.31 18.722-.41 28.092a7.465 7.465 0 0 1-1.25 3.67c-2.43 4.44-5.88 5.74-10.95 5.42-8.42-.54-16.9-.19-25.36-.21h-2.68V30.45zm-55.36 71.636c-3.82 18.2-7.54 35.872-11.27 53.654h-9.16C88.12 112.477 97.2 69.343 106.33 26c2.58.28 5.11.55 7.79.84 7.34 43.333 14.67 86.607 22.04 130.14-2.56.13-5.04.35-7.51.33a2.63 2.63 0 0 1-1.45-1.44c-8.31-16.08-16.603-32.173-24.88-48.274-.87-1.68-1.75-3.36-2.88-5.51zm306.05 19.83c4.68-30.4 9.37-60.803 14.09-91.416 2.68.23 5.45.47 8.55.74-.36 2.66-.67 5.22-1.05 7.78-1.5 10.052-3.007 20.1-4.52 30.143-1.61 10.68-3.26 21.362-4.87 32.043-1.61 10.68-3.15 21.37-4.74 32.052-1.14 7.72-2.29 15.43-3.5 23.132-.146.494-.535.878-1.03 1.02-2.22.1-4.44.05-7.13.05-7.04-41.573-14.09-83.256-21.25-125.57 3.02 0 5.61-.03 8.2.05.432.183.748.563.85 1.02 1.71 9.23 3.39 18.47 5.04 27.713 2.267 12.63 4.52 25.268 6.76 37.912 1.39 7.79 2.773 15.582 4.15 23.372.15-.01.3-.03.45-.04zM216.17 30.3c11.89-.52 23.31-1.01 35-1.52.24 8.44.47 16.74.71 25.222h-8.93v-16.35c-6.03.27-12.05.54-18.2.82 0 5.68-.02 11.25.04 16.81.113.63.366 1.223.74 1.74 10.22 19.412 20.44 38.82 30.66 58.225a5 5 0 0 1 .67 2.14c-.08 8.33-.04 16.68-.4 25.002-.34 7.79-6.28 13.47-14.04 14.23-6.29.61-12.18-.21-17.13-4.41a20.982 20.982 0 0 1-7.57-15.992c-.26-9.81-.27-19.62-.38-29.442-.01-.7 0-1.4 0-2.38 2.52 0 4.94-.07 7.35.08.55.375.9.984.94 1.65.23 5.19.33 10.39.5 15.58.17 5.192.36 10.382.63 15.562.4 8.01 6.47 11.12 13.22 10.37 5.75-.65 8.36-3.82 8.42-9.7.06-5.78.12-11.55.08-17.32a6.4 6.4 0 0 0-.77-2.89c-10.17-18.936-20.35-37.86-30.54-56.775a8.618 8.618 0 0 1-.96-3.79c-.08-8.85-.04-17.702-.04-26.863zm231.35 1.46c13.74-.83 27.2-1.64 40.92-2.47v7.86c-10.39.75-20.9 1.52-31.65 2.31.39 16.682.78 33.254 1.18 50.215 4.13-3.17 8-6.14 12.06-9.25 1.13 2.73 2.23 5.22 3.14 7.78a2.3 2.3 0 0 1-.86 1.79c-4.38 3.55-8.84 7-13.22 10.55a2.972 2.972 0 0 0-1.08 1.98c.17 14.502.387 28.996.65 43.484.025.305.07.61.13.91 4.48.14 8.94.34 13.4.41 5.06.08 10.12.08 15.18.03 1.34-.01 1.8.45 1.75 1.78-.09 2.16-.02 4.32-.02 6.8h-38.53c-1.01-41.183-2.027-82.576-3.05-124.18zm-108.36.32h8.52c.99 36.473 1.98 73.156 2.98 109.83.14.07.28.15.43.22 6.68-7.102 13.37-14.192 20.17-21.413 1.75 2.22 3.51 4.46 5.34 6.78-3.39 3.84-6.69 7.58-10 11.32-5.14 5.812-10.3 11.592-15.4 17.443a3.645 3.645 0 0 1-3.27 1.49c-1.85-.12-3.71-.03-5.88-.03-.96-41.863-1.93-83.636-2.89-125.64zM42 157c2.99-2.99 5.89-5.9 8.86-8.88 2.19 2.98 4.49 6.12 7.12 9.7-5.63-.29-10.84-.56-15.98-.82zm534.14-.21c3-2.67 6-5.34 9.07-8.08 2.02 2.59 4.38 5.65 6.79 8.75h-15.56c-.1-.22-.2-.45-.3-.67zm-62.79-77.276c.24.04.49.09.73.13 5.9-5.5 11.81-10.97 17.66-16.52a3.43 3.43 0 0 0 .7-2.22c.05-6.732.03-13.462.03-20.193v-1.93c-6.1-.31-11.91-.61-17.72-.88-1.25-.06-2.16.12-2.11 1.87.31 9.422.51 18.832.69 28.253.08 3.83.02 7.66.02 11.49zm-337.38 4.72c-4.06 4.51-7.95 8.76-11.72 13.11a5.073 5.073 0 0 0-1.13 3.032c-.07 15.72-.05 31.442-.05 47.153v2.13c6.78-.38 13.3-.77 19.81-1.11 2.66-.14 3.56-1.07 3.67-3.71.18-4.87.48-9.732.64-14.602.1-2.88.67-5.94-.08-8.61-3.47-12.412-7.32-24.723-11.14-37.394zm-12.62-.66l.57.15c5.79-6.51 11.6-13 17.36-19.55.542-.61.863-1.386.91-2.2-.1-7.372-.29-14.742-.47-22.123-.03-.49-.097-.978-.2-1.46h-18.17v45.184zm-53.69-29.162a4.84 4.84 0 0 0-.41.78c-2.19 10.55-4.39 21.112-6.5 31.683a4.39 4.39 0 0 0 .52 2.7 5686.205 5686.205 0 0 0 17.6 33.392c.24.44.56.84.84 1.25.15-.05.29-.1.44-.15l-12.49-69.655zM311.57 177.81a3.313 3.313 0 0 0-1.313-1.52 4.5 4.5 0 0 0-4.33 0 3.372 3.372 0 0 0-1.312 1.52 6.284 6.284 0 0 0-.45 1.642c-.09.558-.15 1.12-.18 1.684a84.195 84.195 0 0 0 0 3.728c.03.564.09 1.126.18 1.684a6.09 6.09 0 0 0 .45 1.632 3.4 3.4 0 0 0 1.313 1.53 4.5 4.5 0 0 0 4.33 0 3.34 3.34 0 0 0 1.31-1.53c.235-.517.39-1.067.462-1.632.087-.558.144-1.12.17-1.684.02-.473.03-1.1.03-1.87s-.01-1.396-.03-1.858a15.77 15.77 0 0 0-.17-1.684 5.9 5.9 0 0 0-.46-1.643zm28.155-1.828c-.21-.01-.54-.01-.982-.01h-2.074v7.177h2.073c.44 0 .772 0 .982-.01.21-.012.46-.043.732-.084.257-.04.51-.11.75-.205.35-.146.667-.363.933-.636a3.08 3.08 0 0 0 .6-.872c.127-.295.224-.6.292-.914a4.303 4.303 0 0 0 0-1.746 4.97 4.97 0 0 0-.29-.903 2.987 2.987 0 0 0-1.534-1.51 3.1 3.1 0 0 0-.75-.206 5.28 5.28 0 0 0-.733-.082zm45.922 1.827a3.334 3.334 0 0 0-1.322-1.52 4.482 4.482 0 0 0-4.32 0 3.334 3.334 0 0 0-1.322 1.52 6.284 6.284 0 0 0-.45 1.642c-.092.557-.15 1.12-.17 1.684a44.98 44.98 0 0 0-.03 1.86c0 .78.01 1.395.03 1.868.02.564.078 1.127.17 1.684a6.09 6.09 0 0 0 .45 1.632c.277.638.74 1.172 1.323 1.53 1.35.74 2.97.74 4.32 0a3.363 3.363 0 0 0 1.32-1.53 6.09 6.09 0 0 0 .452-1.632c.092-.557.15-1.12.17-1.684.02-.473.03-1.1.03-1.87s-.01-1.396-.03-1.858a13.527 13.527 0 0 0-.17-1.684 6.284 6.284 0 0 0-.45-1.643zm-147.415 7.988h5.672l-2.836-8.954-2.836 8.954zM276.46 28.32c3.97.35 7.72.66 11.46 1 6.43.58 12.86 1.167 19.29 1.76 1.53.14 3.06.32 4.59.38 1.32.06 1.1 1.03 1.12 1.8.18 5.32.32 10.64.47 15.962.45 15.77.98 31.542 1.33 47.303.3 13.4.59 26.812.49 40.203a35.788 35.788 0 0 1-2.32 11.37c-2.23 6.292-6.78 10.222-13.66 10.672-6.71.43-12.31-1.85-16.21-7.58a25.964 25.964 0 0 1-4.53-13.682c-.55-14.74-.95-29.485-1.2-44.233-.37-20.842-.56-41.683-.83-62.525-.01-.7 0-1.4 0-2.43zm8.17 9.33c0 1.95-.04 3.74 0 5.52.49 21.673.94 43.345 1.5 65.016.25 9.49.633 18.975 1.15 28.452.182 3.55 1.5 6.948 3.76 9.69 4.1 5.03 10.72 4.41 13.38-1.5a22.024 22.024 0 0 0 2.02-9.04c-.38-31.482-.98-62.974-1.52-94.457-.01-.56-.1-1.13-.16-1.87-6.7-.61-13.31-1.2-20.13-1.81z" filter="url(#ea)" opacity=".5"/><path fill="#FFF" d="M45.05 187L43 179.997l64.655-2.995 88.25 1.994v7.002l-102.623-2.995L45.05 187zm388.936-2.004l1.03-5 86.202-2.994L588.94 176l2.06 8.004-93.39-1-63.624 1.992zm-215.102 6.768H217v-17.528h1.884l4.97 10.38 4.96-10.38h1.893v17.528h-1.893V177.87l-4.1 8.678h-1.722l-4.108-8.677v13.894zm15.48 0l5.792-17.528h1.814l5.802 17.528h-1.974l-1.333-4.23h-6.794l-1.34 4.23h-1.965zm18.95-17.528v10.083l7.223-10.084h2.144l-6.1 8.43 6.312 9.098h-2.235l-5.28-7.722-2.064 2.773v4.95h-1.884v-17.53h1.883zm13.365 17.528v-17.528h9.418v1.735h-7.535v5.988h6.443v1.735h-6.443v6.335h7.535v1.736h-9.42zm25.83-6.264l-5.11-11.264h2.045l4.008 9.21 4.008-9.21h2.045l-5.11 11.264v6.264h-1.884V185.5zm10.362-8.337a5.318 5.318 0 0 1 1.994-2.31 6.533 6.533 0 0 1 6.453 0 5.254 5.254 0 0 1 1.993 2.31 7.44 7.44 0 0 1 .56 1.95c.116.62.186 1.25.21 1.88.02.492.03 1.16.03 2.002 0 .842-.01 1.51-.03 2.012-.024.63-.094 1.26-.21 1.88a7.44 7.44 0 0 1-.56 1.95 5.173 5.173 0 0 1-1.994 2.3 6.466 6.466 0 0 1-6.454 0 5.235 5.235 0 0 1-1.994-2.3 7.845 7.845 0 0 1-.56-1.95 16.865 16.865 0 0 1-.212-1.88 99.21 99.21 0 0 1 0-4.014c.035-.63.105-1.258.21-1.88.103-.672.29-1.328.562-1.95zm15.74 8.224v-11.15h1.885v11.15a9.154 9.154 0 0 0 .24 2.536c.226.75.715 1.387 1.373 1.787a4.02 4.02 0 0 0 2.034.555 3.967 3.967 0 0 0 2.034-.555 3.107 3.107 0 0 0 1.373-1.787c.2-.83.28-1.683.242-2.536v-11.15h1.893v11.15c0 .483-.01.842-.02 1.1-.007.308-.033.617-.08.923a5.5 5.5 0 0 1-.22 1.006 4.907 4.907 0 0 1-1.223 2.064c-.517.522-1.14.92-1.823 1.17a6.76 6.76 0 0 1-2.176.35 6.655 6.655 0 0 1-2.164-.35 4.967 4.967 0 0 1-1.824-1.17 4.907 4.907 0 0 1-1.222-2.064 5.5 5.5 0 0 1-.22-1.006c-.05-.37-.09-.667-.09-.924s-.01-.616-.01-1.1zm16.174-11.15h3.957c.552 0 .962.01 1.233.02.32.017.637.055.952.113.368.067.728.177 1.072.328a4.646 4.646 0 0 1 2.184 1.87 5.85 5.85 0 0 1-.01 5.996 4.627 4.627 0 0 1-2.204 1.868l3.337 7.332h-2.034l-3.077-6.88h-3.527v6.88h-1.884v-17.528zm24.8 17.527H357.7v-17.528h1.885l4.97 10.38 4.96-10.38h1.884v17.528h-1.885V177.87l-4.108 8.678h-1.714l-4.108-8.677v13.894zm17.364-14.6a5.192 5.192 0 0 1 1.994-2.312 6.515 6.515 0 0 1 6.443 0 5.192 5.192 0 0 1 1.994 2.31 7.44 7.44 0 0 1 .562 1.95c.115.622.185 1.25.21 1.88.02.493.03 1.16.03 2.003 0 .842-.01 1.51-.03 2.012-.025.63-.095 1.26-.21 1.88a7.44 7.44 0 0 1-.56 1.95 5.112 5.112 0 0 1-1.995 2.3 6.448 6.448 0 0 1-6.443 0 5.112 5.112 0 0 1-1.994-2.3 7.44 7.44 0 0 1-.56-1.95c-.114-.62-.188-1.25-.222-1.88a99.21 99.21 0 0 1 0-4.014c.034-.63.108-1.26.22-1.88a7.44 7.44 0 0 1 .562-1.95zm19.36 14.6l-5.803-17.528h1.974l4.74 14.91 4.73-14.91h1.974l-5.802 17.528h-1.813zm11.27 0v-17.528H417v1.735h-7.535v5.988h6.453v1.735h-6.453v6.335H417v1.736h-9.42zM503.32 29.41h37.97c0 2.26-.03 4.62 0 6.97.15 9.49.27 18.992.51 28.483a4.31 4.31 0 0 1-1.69 3.76c-2.29 1.96-4.38 4.14-6.67 6.1a2.56 2.56 0 0 0-.91 3.12 27755.51 27755.51 0 0 1 21.68 75.057c.21.73.43 1.46.7 2.4-2.85 1.14-5.67 2.27-8.81 3.52-7.45-25.032-14.86-49.924-22.35-75.066-3.2 2.91-6.2 5.59-9.12 8.35a2.506 2.506 0 0 0-.48 1.72c.48 18.402.99 36.804 1.53 55.205.09 3.07.39 6.13.61 9.39-2.99.19-5.9.37-9.33.58-1.21-43.213-2.42-86.196-3.64-129.59zM154.8 30.45c12.06-.45 23.75-.89 35.63-1.34.07.8.17 1.47.18 2.15.16 11.54.33 23.082.42 34.633a4.247 4.247 0 0 1-.99 2.52c-1.82 2.15-3.77 4.2-5.73 6.22a2.246 2.246 0 0 0-.59 2.54c3.84 13.512 7.627 27.033 11.36 40.564.247.858.372 1.747.37 2.64-.13 9.36-.31 18.722-.41 28.092a7.465 7.465 0 0 1-1.25 3.67c-2.43 4.44-5.88 5.74-10.95 5.42-8.42-.54-16.9-.19-25.36-.21h-2.68V30.45zm-55.36 71.636c-3.82 18.2-7.54 35.872-11.27 53.654h-9.16C88.12 112.477 97.2 69.343 106.33 26c2.58.28 5.11.55 7.79.84 7.34 43.333 14.67 86.607 22.04 130.14-2.56.13-5.04.35-7.51.33a2.63 2.63 0 0 1-1.45-1.44c-8.31-16.08-16.603-32.173-24.88-48.274-.87-1.68-1.75-3.36-2.88-5.51zm306.05 19.83c4.68-30.4 9.37-60.803 14.09-91.416 2.68.23 5.45.47 8.55.74-.36 2.66-.67 5.22-1.05 7.78-1.5 10.052-3.007 20.1-4.52 30.143-1.61 10.68-3.26 21.362-4.87 32.043-1.61 10.68-3.15 21.37-4.74 32.052-1.14 7.72-2.29 15.43-3.5 23.132-.146.494-.535.878-1.03 1.02-2.22.1-4.44.05-7.13.05-7.04-41.573-14.09-83.256-21.25-125.57 3.02 0 5.61-.03 8.2.05.432.183.748.563.85 1.02 1.71 9.23 3.39 18.47 5.04 27.713 2.267 12.63 4.52 25.268 6.76 37.912 1.39 7.79 2.773 15.582 4.15 23.372.15-.01.3-.03.45-.04zM216.17 30.3c11.89-.52 23.31-1.01 35-1.52.24 8.44.47 16.74.71 25.222h-8.93v-16.35c-6.03.27-12.05.54-18.2.82 0 5.68-.02 11.25.04 16.81.113.63.366 1.223.74 1.74 10.22 19.412 20.44 38.82 30.66 58.225a5 5 0 0 1 .67 2.14c-.08 8.33-.04 16.68-.4 25.002-.34 7.79-6.28 13.47-14.04 14.23-6.29.61-12.18-.21-17.13-4.41a20.982 20.982 0 0 1-7.57-15.992c-.26-9.81-.27-19.62-.38-29.442-.01-.7 0-1.4 0-2.38 2.52 0 4.94-.07 7.35.08.55.375.9.984.94 1.65.23 5.19.33 10.39.5 15.58.17 5.192.36 10.382.63 15.562.4 8.01 6.47 11.12 13.22 10.37 5.75-.65 8.36-3.82 8.42-9.7.06-5.78.12-11.55.08-17.32a6.4 6.4 0 0 0-.77-2.89c-10.17-18.936-20.35-37.86-30.54-56.775a8.618 8.618 0 0 1-.96-3.79c-.08-8.85-.04-17.702-.04-26.863zm231.35 1.46c13.74-.83 27.2-1.64 40.92-2.47v7.86c-10.39.75-20.9 1.52-31.65 2.31.39 16.682.78 33.254 1.18 50.215 4.13-3.17 8-6.14 12.06-9.25 1.13 2.73 2.23 5.22 3.14 7.78a2.3 2.3 0 0 1-.86 1.79c-4.38 3.55-8.84 7-13.22 10.55a2.972 2.972 0 0 0-1.08 1.98c.17 14.502.387 28.996.65 43.484.025.305.07.61.13.91 4.48.14 8.94.34 13.4.41 5.06.08 10.12.08 15.18.03 1.34-.01 1.8.45 1.75 1.78-.09 2.16-.02 4.32-.02 6.8h-38.53c-1.01-41.183-2.027-82.576-3.05-124.18zm-108.36.32h8.52c.99 36.473 1.98 73.156 2.98 109.83.14.07.28.15.43.22 6.68-7.102 13.37-14.192 20.17-21.413 1.75 2.22 3.51 4.46 5.34 6.78-3.39 3.84-6.69 7.58-10 11.32-5.14 5.812-10.3 11.592-15.4 17.443a3.645 3.645 0 0 1-3.27 1.49c-1.85-.12-3.71-.03-5.88-.03-.96-41.863-1.93-83.636-2.89-125.64zM42 157c2.99-2.99 5.89-5.9 8.86-8.88 2.19 2.98 4.49 6.12 7.12 9.7-5.63-.29-10.84-.56-15.98-.82zm534.14-.21c3-2.67 6-5.34 9.07-8.08 2.02 2.59 4.38 5.65 6.79 8.75h-15.56c-.1-.22-.2-.45-.3-.67zm-62.79-77.276c.24.04.49.09.73.13 5.9-5.5 11.81-10.97 17.66-16.52a3.43 3.43 0 0 0 .7-2.22c.05-6.732.03-13.462.03-20.193v-1.93c-6.1-.31-11.91-.61-17.72-.88-1.25-.06-2.16.12-2.11 1.87.31 9.422.51 18.832.69 28.253.08 3.83.02 7.66.02 11.49zm-337.38 4.72c-4.06 4.51-7.95 8.76-11.72 13.11a5.073 5.073 0 0 0-1.13 3.032c-.07 15.72-.05 31.442-.05 47.153v2.13c6.78-.38 13.3-.77 19.81-1.11 2.66-.14 3.56-1.07 3.67-3.71.18-4.87.48-9.732.64-14.602.1-2.88.67-5.94-.08-8.61-3.47-12.412-7.32-24.723-11.14-37.394zm-12.62-.66l.57.15c5.79-6.51 11.6-13 17.36-19.55.542-.61.863-1.386.91-2.2-.1-7.372-.29-14.742-.47-22.123-.03-.49-.097-.978-.2-1.46h-18.17v45.184zm-53.69-29.162a4.84 4.84 0 0 0-.41.78c-2.19 10.55-4.39 21.112-6.5 31.683a4.39 4.39 0 0 0 .52 2.7 5686.205 5686.205 0 0 0 17.6 33.392c.24.44.56.84.84 1.25.15-.05.29-.1.44-.15l-12.49-69.655zM311.57 177.81a3.313 3.313 0 0 0-1.313-1.52 4.5 4.5 0 0 0-4.33 0 3.372 3.372 0 0 0-1.312 1.52 6.284 6.284 0 0 0-.45 1.642c-.09.558-.15 1.12-.18 1.684a84.195 84.195 0 0 0 0 3.728c.03.564.09 1.126.18 1.684a6.09 6.09 0 0 0 .45 1.632 3.4 3.4 0 0 0 1.313 1.53 4.5 4.5 0 0 0 4.33 0 3.34 3.34 0 0 0 1.31-1.53c.235-.517.39-1.067.462-1.632.087-.558.144-1.12.17-1.684.02-.473.03-1.1.03-1.87s-.01-1.396-.03-1.858a15.77 15.77 0 0 0-.17-1.684 5.9 5.9 0 0 0-.46-1.643zm28.155-1.828c-.21-.01-.54-.01-.982-.01h-2.074v7.177h2.073c.44 0 .772 0 .982-.01.21-.012.46-.043.732-.084.257-.04.51-.11.75-.205.35-.146.667-.363.933-.636a3.08 3.08 0 0 0 .6-.872c.127-.295.224-.6.292-.914a4.303 4.303 0 0 0 0-1.746 4.97 4.97 0 0 0-.29-.903 2.987 2.987 0 0 0-1.534-1.51 3.1 3.1 0 0 0-.75-.206 5.28 5.28 0 0 0-.733-.082zm45.922 1.827a3.334 3.334 0 0 0-1.322-1.52 4.482 4.482 0 0 0-4.32 0 3.334 3.334 0 0 0-1.322 1.52 6.284 6.284 0 0 0-.45 1.642c-.092.557-.15 1.12-.17 1.684a44.98 44.98 0 0 0-.03 1.86c0 .78.01 1.395.03 1.868.02.564.078 1.127.17 1.684a6.09 6.09 0 0 0 .45 1.632c.277.638.74 1.172 1.323 1.53 1.35.74 2.97.74 4.32 0a3.363 3.363 0 0 0 1.32-1.53 6.09 6.09 0 0 0 .452-1.632c.092-.557.15-1.12.17-1.684.02-.473.03-1.1.03-1.87s-.01-1.396-.03-1.858a13.527 13.527 0 0 0-.17-1.684 6.284 6.284 0 0 0-.45-1.643zm-147.415 7.988h5.672l-2.836-8.954-2.836 8.954zM276.46 28.32c3.97.35 7.72.66 11.46 1 6.43.58 12.86 1.167 19.29 1.76 1.53.14 3.06.32 4.59.38 1.32.06 1.1 1.03 1.12 1.8.18 5.32.32 10.64.47 15.962.45 15.77.98 31.542 1.33 47.303.3 13.4.59 26.812.49 40.203a35.788 35.788 0 0 1-2.32 11.37c-2.23 6.292-6.78 10.222-13.66 10.672-6.71.43-12.31-1.85-16.21-7.58a25.964 25.964 0 0 1-4.53-13.682c-.55-14.74-.95-29.485-1.2-44.233-.37-20.842-.56-41.683-.83-62.525-.01-.7 0-1.4 0-2.43zm8.17 9.33c0 1.95-.04 3.74 0 5.52.49 21.673.94 43.345 1.5 65.016.25 9.49.633 18.975 1.15 28.452.182 3.55 1.5 6.948 3.76 9.69 4.1 5.03 10.72 4.41 13.38-1.5a22.024 22.024 0 0 0 2.02-9.04c-.38-31.482-.98-62.974-1.52-94.457-.01-.56-.1-1.13-.16-1.87-6.7-.61-13.31-1.2-20.13-1.81z"/></g></symbol><symbol viewBox="0 0 30 30" id="logo_curse"><path fill="#231E1F" fill-rule="evenodd" d="M25 16.05a.9.9 0 0 0-.9-.88.912.912 0 0 0-.9.88.9.9 0 0 0 1.8 0zm-5.25-5.59a.6.6 0 0 0 .62.62.615.615 0 1 0 .02-1.23.62.62 0 0 0-.64.61zM5 18.49c.03-.19.06-.37.1-.56a3.946 3.946 0 0 1 1.85-2.6c.41-.26.86-.47 1.29-.7l.05.05c-.06.25-.13.51-.18.76a5.18 5.18 0 0 0 .21 2.99 2.876 2.876 0 0 0 4.5 1.03c.274-.278.5-.6.67-.95a5.19 5.19 0 0 0 .65-2.7 2.67 2.67 0 0 0-.95-1.94 4.966 4.966 0 0 1-1.49-1.91 2.1 2.1 0 0 1 .08-2.06c.06-.1.14-.18.21-.28.11.37.2.72.31 1.06.12.365.334.693.62.95a1.4 1.4 0 0 0 1.68.01.78.78 0 0 0 .26-.86 2.884 2.884 0 0 0-.32-.72 6.12 6.12 0 0 1-.87-2.21 3.39 3.39 0 0 1 1.38-3.33 6.6 6.6 0 0 1 1.77-.91c.905-.363 1.853-.61 2.82-.73.11-.01.23-.01.35-.01a5.36 5.36 0 0 0-3.51 2.54.973.973 0 1 0-.41 1.87 6.21 6.21 0 0 0 .53 1.88 8.01 8.01 0 0 0 1.8 2.45.17.17 0 0 1 .07.22.75.75 0 0 0 .83 1.04c.03 0 .07-.01.13-.01.07.29.14.58.21.88a1.586 1.586 0 0 0-1.94.46 1.23 1.23 0 0 0 .03 1.51c.502.56 1.32.713 1.99.37a1.5 1.5 0 0 1-.02.22c-.09.55-.318 1.07-.66 1.51a7.28 7.28 0 0 0-1.14 2.08.9.9 0 0 0 .2.97.8.8 0 0 0 1.02.18 2.746 2.746 0 0 0 1.42-1.79 3.188 3.188 0 0 0-.39-2.55.594.594 0 0 0-.04-.08c0-.01.003-.02.01-.03.37.285.697.622.97 1a6.454 6.454 0 0 1 1.28 2.74 4.828 4.828 0 0 1-.96 3.71 4.72 4.72 0 0 1-2.53 1.7c-.52.17-1.05.32-1.58.47a3.23 3.23 0 0 0-2.06 1.58 2.06 2.06 0 0 1-.13.21c-.04-.09-.08-.16-.11-.23a4.015 4.015 0 0 0-1.76-1.86 5.787 5.787 0 0 0-1.78-.47 8.233 8.233 0 0 1-5.49-3.25 4.735 4.735 0 0 1-.93-2.4c-.01-.04-.03-.08-.04-.12v-1.18zM15.8 7.74a.433.433 0 0 0-.44-.42.43.43 0 0 0-.43.44.435.435 0 0 0 .87-.02zm1.01 4.54a.37.37 0 0 0 .37-.34.355.355 0 0 0-.36-.37.355.355 0 1 0-.01.71zM15.27 0c.04.02.07.05.11.07.15.11.207.307.14.48a.426.426 0 0 1-.4.27.413.413 0 0 1-.39-.27c-.06-.176 0-.37.15-.48.04-.02.08-.05.12-.07h.27zM25 16.05a.9.9 0 0 1-1.8 0 .912.912 0 0 1 .9-.88.9.9 0 0 1 .9.88zm-5.25-5.59a.625.625 0 1 1 1.064.448.61.61 0 0 1-.444.172.6.6 0 0 1-.62-.62z"/></symbol><symbol viewBox="0 0 30 30" id="logo_discord"><path fill="#231E1F" fill-rule="evenodd" d="M26.06 6.69A14.53 14.53 0 0 0 19.2 4l-.33.66a13.268 13.268 0 0 1 6.5 3.38 21.007 21.007 0 0 0-20.57 0 13.625 13.625 0 0 1 6.5-3.38L10.97 4a14.46 14.46 0 0 0-6.86 2.69S.6 11.7 0 21.52a13.034 13.034 0 0 0 8.91 4.05l1.13-1.47a13.854 13.854 0 0 1-5.93-3.92 19.556 19.556 0 0 0 21.95 0 13.854 13.854 0 0 1-5.93 3.92l1.13 1.47a13.066 13.066 0 0 0 8.92-4.05c-.61-9.82-4.12-14.83-4.12-14.83zM10.63 18.83a2.72 2.72 0 1 1 2.4-2.7 2.56 2.56 0 0 1-2.4 2.7zm8.91 0a2.72 2.72 0 1 1 2.4-2.7 2.568 2.568 0 0 1-2.4 2.7z"/></symbol><symbol viewBox="0 0 30 30" id="logo_facebook"><path fill="#231E1F" fill-rule="evenodd" d="M16.15 26.01V15.96h3.25l.48-3.91h-3.73v-2.5c0-1.13.3-1.9 1.87-1.9l1.99-.01v-3.5c-.963-.1-1.93-.15-2.9-.15-2.88 0-4.85 1.82-4.85 5.17v2.89H9.01v3.91h3.25v10.05h3.89z"/></symbol><symbol viewBox="0 0 46 35" id="logo_playstation"><path fill="#FFF" fill-rule="evenodd" d="M24.538 34c-.21-.06-.39-.12-.57-.17l-6.12-1.92a.193.193 0 0 1-.15-.24V2c.28.05.54.1.8.16 2.22.47 4.39 1.08 6.56 1.74 1.35.38 2.675.84 3.97 1.38 1.002.41 1.946.948 2.81 1.6a7.05 7.05 0 0 1 2.68 4.18c.45 1.887.48 3.85.09 5.75a5.362 5.362 0 0 1-.96 2.17 4.077 4.077 0 0 1-3.8 1.61 7.53 7.53 0 0 1-2.41-.67.253.253 0 0 1-.18-.28c.01-3.24.01-6.48 0-9.72a4.89 4.89 0 0 0-.17-1.47 1.638 1.638 0 0 0-1.22-1.2.873.873 0 0 0-.98.35c-.21.318-.328.69-.34 1.07-.01.17-.01.33-.01.5V34zm1.31-.46a1.48 1.48 0 0 1-.01-.2v-3.52a.21.21 0 0 1 .16-.24c3.58-1.25 7.153-2.507 10.72-3.77.277-.1.544-.224.8-.37a.562.562 0 0 0 .38-.55.61.61 0 0 0-.5-.46 4.11 4.11 0 0 0-1.59-.25 8.726 8.726 0 0 0-3.11.56c-2.23.79-4.47 1.56-6.7 2.33a1.03 1.03 0 0 1-.16.05v-3.85a.216.216 0 0 1 .18-.26c1.5-.484 3.04-.836 4.6-1.05a21.324 21.324 0 0 1 4.3-.16c2 .103 3.974.497 5.86 1.17.56.21 1.13.43 1.67.68.425.195.8.482 1.1.84a1.455 1.455 0 0 1-.02 2.09 5.16 5.16 0 0 1-1.88 1.28c-.9.38-1.82.72-2.74 1.05-3.76 1.34-7.517 2.673-11.27 4-.59.21-1.17.42-1.79.63zm-9.49-7.07v3.5c-.53.07-1.06.16-1.59.23a21.955 21.955 0 0 1-3.03.14 22.765 22.765 0 0 1-6.55-1.1 7.05 7.05 0 0 1-2.13-.95 3.83 3.83 0 0 1-.73-.72 1.45 1.45 0 0 1 .18-2.02c.452-.41.965-.747 1.52-1a26.75 26.75 0 0 1 3.57-1.41c2.86-1.01 5.73-2.02 8.59-3.02.05-.02.1-.03.17-.05 0 .08.01.14.01.2v3.52a.214.214 0 0 1-.17.25c-2.267.8-4.537 1.603-6.81 2.41a6.36 6.36 0 0 0-.75.34c-.1.063-.192.14-.27.23a.37.37 0 0 0 .07.62c.22.136.46.234.71.29a7.49 7.49 0 0 0 3.98-.32c1.03-.36 2.04-.73 3.07-1.1a.75.75 0 0 1 .16-.04z"/></symbol><symbol viewBox="0 0 170 82" id="logo_soclap"><defs><style>.jcls-1{fill:#231e1f;fill-rule:evenodd}</style></defs><path id="jSloclap" class="jcls-1" d="M110.22 18.33c3.19-7.07 3.01-11.63-.6-14.65a11.017 11.017 0 0 0-3.65 6.48 67.693 67.693 0 0 0 .9 34.44c1.01 3.54 2.1 7.06 3.31 10.54.99 2.85 1.56 3.01 4.01 1.46 1.51-.95 2.94-2.03 4.63-3.21-2.25-1.68-4.5-3.32-4.23-6.29a30.276 30.276 0 0 1 1.47-7.52c1.78-5.03 5.47-8.75 9.58-11.82 4.73-3.54 10.19-2.43 15.48-1.41a3.677 3.677 0 0 1 .87 1.12c-1.81.17-3.27.44-4.73.43-3.72-.03-6.04 2.23-7.72 5.1a111.817 111.817 0 0 0-6.15 12.52c3.84-1.02 6.98-2.87 8.59-6.67.8-1.89 1.35-3.89 2.11-5.81 1.48-3.75 2.62-4.16 6.68-2.34-.25 1.01-.43 2.1-.79 3.12-1.93 5.41-3.97 10.78-5.84 16.22a30.455 30.455 0 0 0-.82 4.79c3.54.71 5.77-1.08 7.81-2.98a17.516 17.516 0 0 0 5.47-12.63c.15-3.42.71-6.82.8-10.23.02-1.19-.83-2.41-1.31-3.7 2.82-2.34 6.01-1.9 7.36 1.67 1.18 3.14 1.6 6.58 2.21 9.24 1.81-1.11 3.89-3.09 6.3-3.66 2.96-.7 4.64 1.88 5.95 4.57.74-.45 1.42-.85 2.09-1.26-2.49 1.98-.92 4.58-1.1 6.92-.51 6.64-3.65 12.09-7.9 16.92-.61.69-2.6 1.15-3.1.71-1.55-1.33-3.24-2.97-3.83-4.83-.89-2.79.69-5.26 2.41-7.54 1.49-1.98 4.07-3.33 3.9-6.36-.04-.76-.08-1.51-.12-2.18a1.913 1.913 0 0 0-.63-.25c-5.56 1.19-4.12.04-5.18 5.71-.84 4.46-2.01 8.86-2.88 13.31-1.48 7.62-2.86 15.27-4.35 23.31-1.62.89-3.7.33-5.49-.87-1.8-1.22-1.54-3.22-1.24-5.18 1.22-7.79 2.35-15.59 3.58-23.84a12.313 12.313 0 0 1-1.5 2.01c-1.74 1.48-3.37 3.27-5.38 4.21-5.1 2.4-8 .71-9.1-4.88-.08-.41-.13-.83-.17-1.09a53.234 53.234 0 0 0-5.31 1.66 4.48 4.48 0 0 0-1.44 1.84c-1.23 1.93-2.14 4.16-3.68 5.78-3.81 4.02-9.48 3.4-13.18-1.66-2.9-3.97-5.18-8.4-7.8-12.74-.3.43-.89 1.29-1.49 2.15-3.21 4.68-7.8 6.46-13.22 6.13-4.57-.27-7.3-2.74-7.65-7.37-.52-7.07 1.52-13.28 7.31-17.76a9.08 9.08 0 0 1 2.71-1.36c3.82-1.23 5.99.5 5.91 4.65-2.24-2.76-3.84-2.63-5.9.38-3.04 4.42-3.51 9.44-3.24 14.57.13 2.42 1.53 3.47 4.02 3.18 4.94-.6 8.27-3.71 11.02-7.59a2.832 2.832 0 0 0 .15-1.73c-1.06-10.12-1.04-20.18 3.18-29.65a41.375 41.375 0 0 1 6.19-9.95c3.58-4.18 7.96-2.83 9.43 2.52 1.25 4.55-.78 10.67-4.71 13.35zM41.55 3.59c-3.06 2.54-3.8 5.94-4.42 9.29a68.618 68.618 0 0 0 1.74 32.43c1.02 3.46 2.21 6.86 3.31 10.29.61 1.9 1.67 2.5 3.42 1.26a12.234 12.234 0 0 1 1.3-.8c2.35-1.24 3.24-2.73 2.54-5.75a34.6 34.6 0 0 1 1.92-20.75 48.63 48.63 0 0 1 3.35-5.87c.97.88 1.74 1.56 2.89 2.59 1.14-.19 3.38-1.45 3.91 1.94a1.937 1.937 0 0 0 1.41.8c3.1.49 5.19 2.33 6.86 5.25 1.44-.64 2.92-1.3 4.4-1.95.09.13.18.27.27.4a4.09 4.09 0 0 1-.83.52c-3.8 1.19-3.58 4.18-3.43 7.34.23 5.04-.17 9.98-3.04 14.39-2.53 3.88-10.46 7.45-15.13 3.25-.82.98-1.57 2.02-2.46 2.91-3.83 3.83-8.99 3.51-12.96-.97a33.077 33.077 0 0 1-7.72-14.36c-.88-3.74-1.33-7.59-2.02-11.67-1.85 1.02-3.95 2.06-5.88 3.36a2.693 2.693 0 0 0-.69 2.3c.79 3.57 2.11 7.06 2.59 10.67a25.03 25.03 0 0 1-.31 9.42c-1.91 7.14-8.34 10.31-14.65 7.75a11.763 11.763 0 0 1-6.13-16.64 41.547 41.547 0 0 1 6.53-8.18 2.73 2.73 0 0 0 .57-3.75c-2.65-5.28-5.63-10.45-7.66-15.97A18.1 18.1 0 0 1 3.31 6.08C6.3 1.68 11.9-.66 16.63.38c5.79 1.27 10.87 6.03 11.53 11.36.23 1.92-.56 4-1.11 5.94-.11.38-1.27.52-1.97.6-.36.04-.91-.53-1.13-.4-1.68.95-2.02-.37-2.21-1.42-.69-3.65-3.18-5.22-6.42-6.14-2.67-.75-4.61.34-5.46 2.97a11.962 11.962 0 0 0 1.13 10.4c2.33 3.88 4.6 7.8 6.98 11.85 2.88-.96 5.72-1.8 8.44-2.93.55-.22.92-1.5.96-2.32.35-8.02 1.95-15.71 6.02-22.68a24.717 24.717 0 0 1 4.56-5.83c3.38-3.09 7-1.94 8.51 2.41 1.66 4.79-.27 11.38-3.78 13.65a62.187 62.187 0 0 0 1.5-7.15c.25-2.58-.15-5.14-2.63-7.1zM11.8 44.55c-2.21 2.57-4.2 4.82-6.13 7.13C2.43 55.55 3.9 58.92 7 61.5a6.792 6.792 0 0 0 5.02 1.37c2.13-.43 2.93-2.66 3.06-4.86.27-4.55-.87-8.76-3.28-13.46zm47.25 9.46c5.16-2.99 7.58-9.49 6.58-16.64-2.35-.2-4.64-.4-7.12-.61-.88 5.39-2.49 11.26.54 17.25zm6.38-18.69l.33-.75a15.5 15.5 0 0 0-3.13-2.31c-.67-.28-1.7.33-2.56.53.55.84.93 2.13 1.69 2.42 1.08.42 2.44.11 3.67.11z"/></symbol><symbol viewBox="0 0 30 30" id="logo_twitch"><path fill="#231E1F" fill-rule="evenodd" d="M5.52 4L4 7.7v15.13h5.39v2.74h3.03l2.87-2.74h4.37l5.9-5.63V4H5.52zm18.02 12.23l-3.37 3.22h-5.39l-2.86 2.74v-2.74H7.37V5.93h16.17v10.3zm-3.37-6.6v5.63h-2.02V9.63h2.02zm-5.39 0v5.63h-2.02V9.63h2.02z"/></symbol><symbol viewBox="0 0 30 30" id="logo_twitter"><path fill="#231E1F" fill-rule="evenodd" d="M10.87 24.85a14.32 14.32 0 0 0 14.59-14.26c0-.22 0-.43-.01-.65a10.33 10.33 0 0 0 2.56-2.59c-.94.408-1.933.674-2.95.79a5.077 5.077 0 0 0 2.26-2.77c-1.01.584-2.113.993-3.26 1.21A5.206 5.206 0 0 0 20.31 5a5.07 5.07 0 0 0-5.13 5.01c0 .385.048.767.14 1.14A14.687 14.687 0 0 1 4.74 5.92a4.91 4.91 0 0 0-.69 2.52 4.98 4.98 0 0 0 2.28 4.17 5.31 5.31 0 0 1-2.32-.63v.06a5.024 5.024 0 0 0 4.11 4.91 5.226 5.226 0 0 1-2.32.09 5.134 5.134 0 0 0 4.8 3.48 10.484 10.484 0 0 1-6.37 2.14c-.42 0-.83-.02-1.23-.06a14.8 14.8 0 0 0 7.87 2.25"/></symbol><symbol viewBox="0 0 46 35" id="logo_windows8"><path fill="#FFF" fill-rule="evenodd" d="M11 8.54l10.21-1.39.01 9.82-10.21.06L11 8.54zm10.21 9.57l.01 9.83L11 26.54v-8.5l10.21.07zm1.24-11.14L36 5v11.85l-13.55.11V6.97zM36 18.2V30l-13.55-1.91-.02-9.91L36 18.2z"/></symbol><symbol viewBox="0 0 24 24" fill="none" id="logo_xbox"><path d="M21 12a8.973 8.973 0 0 0-3.12-6.804c-1.38.73-2.637 1.67-3.728 2.788.033.035.066.064.098.1 2.79 3.01 5.333 7.298 4.91 9.353A8.948 8.948 0 0 0 21 12zM12.443 5.967a9.658 9.658 0 0 1 4.44-1.52 8.964 8.964 0 0 0-9.31-.277c.492.426 2.127.585 4.112 1.8a.722.722 0 0 0 .758-.003zM9.875 8.083c.035-.036.07-.068.104-.104a21.354 21.354 0 0 0-2.93-2.373 1.392 1.392 0 0 0-1.127-.232A8.982 8.982 0 0 0 5.06 17.73c-.773-1.91 1.858-6.504 4.815-9.647zM12.063 9.896c-2.972 2.63-7.108 6.55-6.474 8.416a8.98 8.98 0 0 0 13.03-.23c.365-1.965-3.566-5.503-6.557-8.186z" fill="#fff"/></symbol></svg>